<svg version="1.2" xmlns="http://www.w3.org/2000/svg" viewBox="0 0 1549 1550" width="1549" height="1550"><style>.a{fill:#00866d}.b{fill:#fff}.c{fill:#ff6a20}</style><path fill-rule="evenodd" class="a" d="m1548.4 0.2v1549.2h-1547.6v-1549.2z"/><path fill-rule="evenodd" class="b" d="m790.3 1500.8c-395.7 0-715.5-319.3-715.5-714.4 0-395 319.8-714.3 715.5-714.3 395.7 0 715.5 319.3 715.5 714.3 0 395.1-319.8 714.4-715.5 714.4z"/><path fill-rule="evenodd" class="c" d="m747.5 1322.1l-11.5-4h-15.5l-11.6-3.6h-8l-15.5-7.9h-11.5l-15.5-7.6h-8l-11.5-8h-8l-15.5-7.5-7.6-8-31-15.5-4-7.5-15.5-8-8-7.6-7.5-3.9-4-8-8-3.6-19.1-19.5-4-8-19.5-19.5-11.5-23-12-11.6-3.5-11.9-4-3.6-4-12-15.5-31v-7.5l-4-8-4-11.5-3.6-8v-7.6l-4-11.5v-15.5l-3.9-12v-27l-4-7.6v-15.5l4-8v-39l3.9-7.5v-11.6l4-7.9v-11.6l3.6-4v-15.5l4-4v-7.5l4-4v-7.5l4-4 3.5-8v-3.6l4-7.9 4-4v-7.6l4-4 4-7.9v-3.6l3.5-4 8-15.5 4-4v-4l3.5-3.5 4-8 8-7.6 3.6-7.9 7.9-7.6 4-8 23.1-23 8-4v-8l7.5-3.5 8-8 8-4 7.5-7.5h4l4-4 7.5-4 8-7.6 7.5-4 4-3.9h4v-4h4l3.6-3.6h4v-4h3.9l4-4h3.6v-4h4v-3.5h4l4-4h7.5v-4h8l3.5-4h16l3.5 4h4l11.6 11.5v4l3.9 4v7.6l4 4v19.5l4 7.9v582.3h3.6v4h4v3.9h4v3.6h3.9v4h7.6v4h12v4h11.5l4 3.5h15.5v4h19.5v-4h15.5l3.6-3.5h8l4-4h7.5v-4h8v-4h4l3.5-3.6h4v-3.9l4-4v-23.5l4-7.6v-567.1l3.5-3.6v-11.9l4-3.6v-4l8-8v-3.5l4-4h3.5v-4h27.5l3.6 4h4l4 4h7.9v3.5h3.6l4 4h4v4h4v4h7.5v3.6h4l4 4h3.5l8 7.9 7.6 3.6 11.9 12h7.6l7.9 7.5 7.6 4 12 11.5 3.5 8 8 7.5 8 4 11.5 11.6 4 7.9 11.5 11.6 4 7.9 7.5 7.6v8l8 7.5 4 8 3.6 3.5v8l7.9 7.6 4 7.9v4l3.6 7.6 4 4v7.9l4 3.6v8l4 4 3.5 7.5v4l4 7.5v4l4 8v11.5l4 7.6v11.9l4 7.6v19.5l3.5 4v77.6l-3.5 7.5v19.5l-4 11.6v7.9l-8 15.6v11.5l-11.5 23.5v7.5l-8 15.5-3.6 12-4 7.6-7.9 7.9-3.6 7.6-4 4-8 15.5-7.5 7.5-4 8-19.5 19.5-4 7.6-7.5 3.9-4 8-8 3.6-19.1 19.5-15.5 8-8 7.5-31 15.5-4 8-11.5 3.6-8 3.9h-7.5l-8 8h-7.6l-7.9 3.6-11.6 4h-8l-15.5 7.9h-11.5l-8 3.6h-19.1l-7.9 4zm23.5-827v-4h-12v-4h-11.5v-3.5h-4l-4-4h-3.6v-4h-4l-7.9-7.6h-3.6v-7.9h-4v-4h-4v-3.6l-4-4v-4l-3.5-3.9v-11.6h-4v-38.6h4v-11.9l3.5-3.6v-4l4-4v-3.9h4v-3.6h4v-4l3.6-4v-4h3.9l4-4h4v-3.5h3.6l4-4h4v-4h11.5v-4h19.5v-3.5h8l3.5 3.5h19.5v4h8l4 4h3.6v4h7.9v3.5h4v4h3.6v4h4v4h4v4h4v7.5h3.9v4l3.6 4v7.6h4v54.5h-4v7.5h-3.6v8h-3.9v3.6l-4 4v4h-4v3.9h-4v3.6h-3.6v4h-4v4h-7.9v4h-3.6l-4 3.5h-8v4h-11.5v4z"/><path fill-rule="evenodd" class="c" d="m957.7 359.4v7.5l-4 4-4 7.6v8l-3.5 3.9v15.6l-4 3.5v39l4 7.6v11.9l3.5 3.6v4l4 4v4l8 7.5v4l7.5 8v3.5l11.6 12h3.9l4 3.5v4l8 8 7.6 3.6v4l3.9 3.9h7.6l47 46.6 7.5 4 4 7.5 11.5 11.6 4 7.9 15.6 15.6v4l3.9 3.9v3.6h4v4l7.6 8v3.5l4 4v4l4 4h3.5v7.5l8 8v3.6l4 3.9v4l4 4v3.6l3.5 4v4l4 3.9v7.6l4 8v3.5l4 4v4l3.5 4v7.5l4 4v7.6l4 3.9v12l4 3.6v11.9l3.6 3.6v15.5l3.9 4v23.5l4 3.5v85.6l-4 8v11.5l-3.9 11.6v7.9l-3.6 11.6v7.5l-4 12-4 7.5v11.6l-4 11.9-7.5 15.5-4 11.6-7.5 15.5-4 11.5-8 8-4 7.5-3.5 12-4 7.6-8 7.9-3.6 11.6-7.9 7.5-4 8-7.6 4-8 11.5-27 27.1-4 7.9-7.5 4-16 15.5-7.5 3.6-8 8-11.5 4-7.6 7.5-8 4-7.9 7.5-15.6 8-11.5 4-15.5 7.5-11.5 4-8 4-11.6 3.6-7.9 4h-11.6l-7.5 4-12 3.9h-7.5l-12 3.6h15.5l12-3.6 15.5-3.9h11.6l70-23.5 11.5-7.6 23.5-8 11.6-7.5 11.5-4 12-7.5 11.5-4 8-8 11.5-7.5 7.6-8 11.9-7.6 7.6-7.9 11.9-7.6 15.6-15.5 11.5-8 8-7.5 7.5-12 11.5-7.5 8-8 4-11.5 11.5-7.6 4-12 7.6-7.5 15.5-23.5 4-11.5 8-8 3.5-11.5 16-23.1 15.5-46.6 7.5-11.9v-11.6l8-23 3.6-16 3.9-11.5v-11.5l4-11.6v-15.5l4-12v-112.6l-4-3.5v-19.5l-4-4v-19.5l-3.9-3.6v-15.5l-3.6-4v-8l-4-3.5v-8l-4-4v-11.5l-4-8v-3.6l-3.5-7.9-4-4v-7.6l-4-4-4-7.5v-4l-3.5-8v-3.5l-8-8v-4l-4-7.5-4-4-3.5-7.6-4-4v-7.9l-8-7.6-3.6-8-4-3.5-3.9-8-7.6-7.5-4-8-19.5-19.5-4-7.6-31-31-4-8-7.5-4-12-11.5-3.6-7.5-4-4-7.9-4v-4l-7.6-3.6-8-7.9v-4l-11.5-11.6h-4l-27-27h-4l-8-8h-3.5v-4h-4v-3.5h-8v-4h-11.5v-4h-7.6v4h-12v4h-3.9v3.5h-3.6v4h-4v4h-4v4l-4 3.5zm-120.1 959.2l-12 4h4zm-116.6 0h-4l15.5 4zm-19.5-4h-11.6l15.6 4h4zm-23.5-4l-7.6-4-11.5-3.6-8-4h-11.5l-8-7.9-11.5-3.6-8-4-11.5-4-7.6-4-8-7.5-15.5-8-11.5-7.5-8-4-7.5-7.6-8-3.9-8-8-7.5-3.6-15.6-15.9-3.9-7.6-15.6-15.5-7.9-4-3.6-11.5-8-8-4-7.5-7.5-8-4-7.6-7.5-7.9-4-7.6-4-11.5-8-8-3.5-7.5-4-12-8-15.5-3.6-11.5-4-8-3.9-11.6-4-7.5-3.6-12v-7.5l-4-11.5v-8l-4-11.5v-8l-4-11.6v-23l-3.9-8v-66.1l3.9-7.5v-27.5l4-3.5v-12l4-3.6v-15.5l4-4v-8l3.6-3.9v-7.6l4-4v-7.5h3.9v-12l4-3.5v-8l7.6-7.6v-7.9l8-7.6v-4l3.5-4v-3.9l4-3.6 4-8v-4l4-3.5v-4l11.5-11.5v-4l4-4 4-7.6v-3.9l15.5-15.6 3.6-7.9v-4l7.9-3.6 4-4v-4l4-4 7.6-3.5 7.9-8 3.6-7.5 4-4h4l35-35 7.5-4h4l8-7.6v-4l23.1-23 4-8 3.9-4h4v-7.5l3.6-4v-4l4-4v-3.6l4-3.9v-4l4-4v-15.5l3.5-3.6v-19.5l-3.5-4v-11.5l-4-4v-15.5l-4-4-4-7.6v-7.9l-3.6-7.6-4-4-3.9-8v-3.5l-4-4v-4l-15.6-15.5h-7.5v-4h-8l-4 4h-7.5v4h-8v4h-7.5v3.5h-4l-8 8h-3.5v4l-4 3.5h-4l-27.1 27.5v4h-4l-31 31.1-4 7.5-11.5 11.5-8 4-7.5 8-4 7.5-4 4-7.6 4-7.9 7.6-4 7.9-7.6 7.6-4 8-7.9 7.5-3.6 8-8 7.5-4 8-11.5 11.5-4 8-3.5 3.6-4 7.9v4l-4 3.6-4 8-4 4v7.5l-7.5 8-4 7.5v4l-4 7.5v4l-3.6 8-4 3.6v7.9l-3.9 4v7.6l-4 4v7.9l-3.6 7.6v4l-4 7.5v4l-4 8v11.5l-4 7.6v19.5l-4 4v27l-3.5 8v85.1l3.5 12v27l4 11.6v11.5l8 23.5 4 15.5 27.1 81.6 7.5 7.6 4 11.9 8 11.6 4 11.5 7.5 12 8 7.5 7.5 11.5 4 12 7.6 7.5 7.9 11.6 8 7.9 7.6 11.6 43 42.5 11.5 8 7.5 7.6 12 7.9 7.5 8 23.5 15.5 7.6 7.6 12 4 11.5 7.5 11.5 4 12 8 23 7.5 12 8 58.1 19.1 15.5 4 11.6 4h11.9zm136.2 11.5h-8zm-7.6 0h-7.9 4zm-31.1 0h-8 4zm-15.5 0h-4 8 7.5z"/></svg>