<svg version="1.2" xmlns="http://www.w3.org/2000/svg" viewBox="0 0 1550 1787" width="1550" height="1787"><style>.a{fill:#83288c}</style><path class="a" d="m775 0.6l17.1 25.6 242.8 422.1h514.7l-12.8 25-242.1 417.9 242.1 422.1 12.8 25.6h-514.7l-242.8 422.2-17.1 25.6-17.1-25.6-242.8-422.2h-514.7l17.1-25.6 242.8-422.1-242.8-417.9-17.1-25h519l242.8-422.1zm0 238.5l-118.9 209.3h242.8zm-571 328.2l118.9 209.3 119.6-209.3zm897.7 0l119.6 209.3 123.2-209.3zm-519 4.2l-195.8 324 195.8 323.9h383l195.8-323.9-195.8-324zm178.7 188c38.5 0 72.6 12.8 98.3 42 54.8 55.5 54.8 140.9 0 196.5-55.6 55.5-141 55.5-195.8 0-55.6-55.6-55.6-141 0-196.5 24.9-29.2 59.1-42 97.5-42zm459.9 251.3l-119.6 212.8h242.8zm-893.5 4.3l-119.6 209.3h242.8zm323.9 328.2l123.2 208.6 118.9-208.6z"/></svg>